<svg xmlns="http://www.w3.org/2000/svg" xmlns:xlink="http://www.w3.org/1999/xlink" width="2000" zoomAndPan="magnify" viewBox="0 0 1500 1499.999933" height="2000" preserveAspectRatio="xMidYMid meet" version="1.0"><defs><g/><clipPath id="006432bdd1"><rect x="0" width="1500" y="0" height="1500"/></clipPath><clipPath id="e3cd254b05"><rect x="0" width="1080" y="0" height="1166"/></clipPath><clipPath id="27850ecd32"><rect x="0" width="1080" y="0" height="789"/></clipPath></defs><g transform="matrix(1, 0, 0, 1, 0, 0.000000000000112861)"><g clip-path="url(#006432bdd1)"><g fill="#ffa8c8" fill-opacity="1"><g transform="translate(1476.785997, 1550.633591)"><g><path d="M -314.390625 -417.6875 L -314.390625 -1120.546875 L 0 -1120.546875 L 0 -67.375 L -1459.640625 -67.375 L -1459.640625 -417.6875 Z M -314.390625 -417.6875 "/></g></g></g></g></g><g transform="matrix(1, 0, 0, 1, 0, 0.000000000000112861)"><g clip-path="url(#e3cd254b05)"><g fill="#004169" fill-opacity="1"><g transform="translate(778.459254, 1165.481811)"><g><path d="M -277.75 -202.59375 L -152.484375 -202.59375 L -152.484375 -527.171875 L 0 -527.171875 L 0 -32.671875 L -707.96875 -32.671875 L -707.96875 -527.171875 L -555.484375 -527.171875 L -555.484375 -202.59375 L -430.234375 -202.59375 L -430.234375 -478.15625 L -277.75 -478.15625 Z M -277.75 -202.59375 "/></g></g></g></g></g><g transform="matrix(1, 0, 0, 1, 0, 0.000000000000112861)"><g clip-path="url(#27850ecd32)"><g fill="#004169" fill-opacity="1"><g transform="translate(778.459254, 788.758808)"><g><path d="M -356.171875 -507.5625 L -121.984375 -741.734375 L -2.171875 -620.84375 L -236.359375 -386.65625 L -2.171875 -152.484375 L -121.984375 -32.671875 L -356.171875 -266.84375 L -590.34375 -32.671875 L -710.15625 -153.578125 L -477.0625 -386.65625 L -710.15625 -620.84375 L -590.34375 -741.734375 Z M -356.171875 -507.5625 "/></g></g></g></g></g></svg>